<?xml version="1.0" encoding="UTF-8" standalone="no"?>
<!-- Created with Inkscape (http://www.inkscape.org/) -->

<svg
   width="512"
   height="512"
   viewBox="0 0 135.46667 135.46667"
   version="1.1"
   id="svg1"
   inkscape:version="1.3.2 (091e20ef0f, 2023-11-25)"
   xmlns:inkscape="http://www.inkscape.org/namespaces/inkscape"
   xmlns="http://www.w3.org/2000/svg"
   xmlns:svg="http://www.w3.org/2000/svg">
  <style>
     #a{fill:#eff1f5;stroke:none;}
     #b{fill:#1e66f5;stroke:#eff1f5;}
     #c{fill:#04a5e5;stroke:#eff1f5;}
     #d{fill:#eff1f5;}
     @media (prefers-color-scheme: dark) {
        #a{fill:#1e1e2e;stroke:none;}
        #b{fill:#cdd6f4;stroke:#1e1e2e;}
        #c{fill:#313244;stroke:#1e1e2e;}
        #d{fill:#1e1e2e;}
     }
  </style>
  <g
     id="layer1">
    <rect
       style="stroke-width:0.826484"
       id="a"
       width="135.46667"
       height="135.46667"
       x="0"
       y="0" />
    <path
       id="b"
       style="stroke-width:2.11667"
       d="m 67.72455,8.8692387 a 58.864502,58.864502 0 0 0 -0.0574,0.0041 58.864502,58.864502 0 0 0 -58.798442,58.8600083 58.864502,58.864502 0 0 0 58.798482,58.859983 58.864502,58.864502 0 0 0 0.0507,0.004 A 36.378262,58.864502 0 0 0 104.08616,67.733347 36.378262,58.864502 0 0 0 67.72455,8.8692387 Z" />
    <path
       d="m 67.72455,8.8692387 a 36.378262,58.864502 0 0 1 36.36161,58.8641083 36.378262,58.864502 0 0 1 -36.36832,58.863603 58.864502,58.864502 0 0 0 0.0155,10e-4 58.864502,58.864502 0 0 0 58.86462,-58.864603 58.864502,58.864502 0 0 0 -58.86462,-58.8646252 58.864502,58.864502 0 0 0 -0.009,5.17e-4 z"
       style="stroke-width:2.11667"
       id="c" />
    <text
       style="font-size:4.23333px;font-family:'JetBrains Mono';stroke:none;stroke-width:2.11667"
       x="60.108391"
       y="69.257317"
       id="d"><tspan
         id="tspan238"
         style="stroke-width:2.11667"
         x="60.108391"
         y="69.257317">sketch</tspan></text>
  </g>
</svg>
